<?xml version="1.0" standalone="no"?>
<!DOCTYPE svg PUBLIC "-//W3C//DTD SVG 20010904//EN"
 "http://www.w3.org/TR/2001/REC-SVG-20010904/DTD/svg10.dtd">
<svg version="1.0" xmlns="http://www.w3.org/2000/svg"
 width="4267.000000pt" height="4267.000000pt" viewBox="0 0 4267.000000 4267.000000"
 preserveAspectRatio="xMidYMid meet">

<g transform="translate(0.000000,4267.000000) scale(0.100000,-0.100000)"
fill="#000000" stroke="none">
<path d="M9557 42603 c-30 -38 -67 -79 -82 -93 -23 -21 -80 -94 -62 -80 3 3
59 58 125 123 96 93 115 117 97 117 -16 0 -39 -20 -78 -67z"/>
<path d="M17547 42659 c7 -7 24 -8 54 -1 l44 10 -54 1 c-40 1 -52 -2 -44 -10z"/>
<path d="M12158 41193 c-21 -5 -24 -23 -4 -23 8 0 16 7 20 15 3 8 4 14 3 14
-1 -1 -10 -3 -19 -6z"/>
<path d="M21503 38117 c-17 -5 -46 -21 -63 -36 -35 -29 -46 -63 -2706 -8341
-636 -1977 -1241 -3860 -1346 -4185 -200 -621 -214 -679 -188 -761 16 -48 76
-108 870 -871 327 -314 620 -596 650 -628 100 -104 443 -420 570 -525 l125
-104 3 81 c3 80 -3 100 -283 1095 -157 557 -315 1112 -349 1233 -76 264 -80
290 -63 380 9 47 306 798 906 2290 491 1221 900 2231 908 2245 46 73 83 93
130 67 19 -11 278 -396 480 -714 56 -88 75 -101 137 -89 59 11 69 33 73 154 2
59 10 1009 19 2112 9 1103 19 2318 22 2700 l7 695 25 45 c14 25 32 45 39 45 8
0 299 -512 697 -1229 376 -676 687 -1233 692 -1238 5 -5 28 0 55 12 l46 20
-14 48 c-7 26 -325 1271 -705 2767 -381 1496 -695 2725 -699 2731 -4 7 -16 7
-38 1z"/>
<path d="M18795 34755 c-802 -175 -1668 -451 -2365 -755 -591 -257 -869 -397
-1400 -706 -302 -176 -814 -515 -1135 -753 -909 -673 -1896 -1669 -2584 -2609
-418 -572 -748 -1106 -1052 -1707 -278 -548 -453 -954 -637 -1476 -409 -1157
-637 -2269 -714 -3479 -17 -273 -17 -1233 0 -1470 28 -383 31 -397 91 -454
l31 -29 782 12 c431 6 800 14 820 17 21 4 53 20 75 39 l38 33 -2 163 c-1 90
-3 472 -5 849 -2 671 -1 691 25 975 35 385 118 934 197 1300 152 708 370 1387
652 2030 87 197 268 567 340 695 30 52 107 190 173 305 205 361 602 949 899
1330 540 693 1209 1351 1912 1883 843 636 1765 1133 2829 1524 310 113 391
152 497 238 76 61 106 95 164 180 65 97 85 140 247 546 164 411 434 1039 478
1110 20 33 27 60 8 34 -8 -12 -9 -11 -5 5 2 11 10 46 17 78 l12 58 -36 36
c-53 53 -101 53 -352 -2z"/>
<path d="M23678 34727 c-74 -47 -97 -67 -98 -84 0 -12 16 -57 36 -100 20 -43
193 -444 385 -892 264 -614 359 -826 388 -862 72 -90 121 -120 311 -189 358
-128 570 -210 765 -295 110 -48 228 -97 262 -110 76 -29 556 -257 713 -339
352 -183 912 -537 1286 -812 895 -659 1736 -1522 2413 -2477 291 -410 517
-785 756 -1251 484 -942 842 -2013 1014 -3031 75 -439 113 -769 151 -1310 14
-200 11 -802 -5 -1075 -26 -427 -24 -444 49 -489 33 -21 41 -21 802 -21 492 0
782 4 806 10 20 6 50 23 66 38 32 30 35 44 67 327 25 218 16 1117 -15 1650
-11 174 -54 605 -86 850 -137 1057 -500 2349 -922 3285 -398 883 -885 1720
-1406 2415 -419 560 -645 825 -1114 1310 -565 584 -1229 1134 -1948 1613 -691
461 -1423 857 -2149 1164 -485 205 -1121 421 -1620 549 -284 72 -772 189 -792
189 -10 0 -62 -29 -115 -63z"/>
<path d="M19182 34645 c0 -16 2 -22 5 -12 2 9 2 23 0 30 -3 6 -5 -1 -5 -18z"/>
<path d="M23997 29250 c-14 -16 -32 -53 -41 -82 -8 -29 -123 -440 -255 -914
l-241 -860 0 -116 0 -116 292 -824 292 -823 0 -105 0 -105 -372 -1205 c-205
-663 -372 -1221 -372 -1240 0 -25 9 -47 29 -70 l29 -35 603 595 c332 328 795
784 1029 1014 273 268 429 429 437 449 6 18 12 65 12 105 1 68 -18 134 -290
1015 -849 2751 -1001 3242 -1011 3261 -19 38 -72 86 -94 86 -12 0 -33 -13 -47
-30z"/>
<path d="M21341 27980 c-17 -19 -33 -41 -36 -50 -2 -8 -99 -442 -214 -965
-370 -1677 -550 -2469 -656 -2895 -150 -601 -169 -755 -120 -957 49 -202 162
-368 330 -481 33 -22 188 -169 345 -327 157 -158 303 -300 324 -316 41 -30 84
-37 129 -20 36 14 80 54 590 534 526 496 517 485 517 617 0 58 -86 441 -476
2128 -261 1131 -502 2180 -534 2330 -63 291 -78 335 -132 397 l-35 39 -32 -34z"/>
<path d="M19903 21713 c-10 -4 -13 -1220 -13 -6033 0 -6690 -6 -6145 64 -6310
30 -71 1228 -1988 1284 -2055 45 -54 102 -64 146 -26 23 20 1279 1901 1329
1991 19 36 50 108 69 160 l32 95 4 1385 c5 2420 -16 10671 -28 10712 -6 20
-23 47 -38 58 -59 47 -49 54 -681 -475 -399 -333 -595 -491 -624 -501 -92 -34
-187 -2 -292 97 -22 21 -285 234 -585 473 l-545 436 -55 -1 c-30 0 -61 -3 -67
-6z"/>
<path d="M28255 20119 c-506 -4 -1437 -17 -2070 -28 -1254 -22 -1210 -19
-1298 -80 -45 -31 -912 -1165 -935 -1223 -18 -47 -10 -80 31 -123 l32 -35
1046 -15 c576 -8 1090 -15 1142 -15 88 0 98 -2 126 -26 22 -18 31 -35 31 -55
0 -23 -278 -431 -1208 -1777 -665 -961 -1214 -1757 -1220 -1769 -28 -53 -8
-122 46 -155 l34 -21 2197 6 c2098 5 2198 6 2244 24 46 17 68 43 537 647 373
478 490 635 490 656 0 38 -39 92 -75 104 -19 6 -427 12 -1125 16 l-1095 6 -62
23 c-35 13 -63 28 -63 35 0 56 87 189 884 1346 467 679 1009 1466 1203 1748
194 283 360 529 368 547 13 32 12 38 -13 87 -39 77 -68 88 -212 86 -63 -1
-529 -5 -1035 -9z"/>
<path d="M17765 20085 c-136 -9 -475 -14 -965 -14 -609 -1 -824 -5 -1112 -21
-339 -18 -360 -20 -405 -44 -26 -13 -58 -35 -69 -48 -27 -29 -2192 -4892
-2212 -4968 -21 -77 -12 -107 41 -130 58 -25 122 -28 818 -41 l606 -11 54 35
c80 51 111 90 178 217 46 88 465 952 660 1360 41 87 65 114 129 148 l60 32
607 0 c535 0 615 -2 677 -17 56 -13 74 -23 93 -47 48 -66 48 -75 54 -861 6
-740 6 -740 28 -781 12 -23 39 -53 60 -65 l38 -24 585 0 585 0 37 23 c23 14
46 42 62 74 l26 52 0 2490 c-1 1930 -4 2504 -13 2550 -20 96 -32 101 -240 102
-95 1 -266 -4 -382 -11z m-991 -1322 c84 -14 104 -22 131 -47 l32 -31 -4 -400
-4 -399 -24 -31 c-38 -50 -71 -55 -396 -55 -246 1 -308 4 -382 19 -48 10 -91
21 -94 24 -17 17 234 548 345 732 87 144 102 162 142 183 55 27 118 29 254 5z"/>
<path d="M11983 20062 c-30 -9 -61 -29 -92 -60 -41 -42 -88 -135 -419 -823
-206 -428 -383 -786 -395 -797 -12 -11 -36 -27 -53 -35 -31 -16 -32 -15 -64
16 -34 33 -300 562 -560 1112 -234 496 -243 511 -356 566 l-65 32 -297 -8
c-359 -11 -362 -11 -637 0 -191 7 -227 6 -276 -8 -66 -20 -124 -63 -161 -120
-46 -73 -1981 -4403 -2192 -4908 -37 -88 -34 -146 10 -171 29 -17 82 -18 880
-18 595 0 861 3 889 11 45 13 108 54 146 96 14 15 207 370 428 788 222 418
410 768 418 778 25 27 45 21 90 -25 31 -33 129 -218 418 -783 406 -795 449
-868 525 -888 20 -5 294 -7 655 -4 702 5 661 0 737 87 39 44 103 181 458 978
1282 2878 1790 4025 1790 4048 0 34 -23 77 -59 107 -23 19 -47 27 -93 31 -35
4 -427 7 -872 9 -643 2 -817 -1 -853 -11z"/>
<path d="M30681 20050 c-56 -20 -69 -32 -101 -92 -19 -35 -20 -58 -20 -395 0
-587 39 -4533 46 -4600 6 -68 33 -119 74 -140 20 -10 158 -12 625 -10 577 2
602 3 640 22 46 23 62 52 75 132 6 33 10 434 10 936 0 946 -2 905 52 953 20
19 39 22 158 28 74 3 338 6 586 7 l452 1 53 -24 c30 -14 71 -42 92 -63 28 -29
148 -258 493 -943 251 -498 472 -927 491 -953 19 -26 55 -60 81 -75 l47 -28
225 2 c124 2 433 9 688 17 583 19 612 24 626 121 4 35 0 62 -18 113 -42 118
-2226 4925 -2249 4950 -12 13 -40 32 -62 42 -38 18 -102 19 -1525 18 -1442 0
-1487 0 -1539 -19z m1707 -1114 c37 -19 61 -49 109 -131 59 -101 235 -455 286
-576 65 -152 170 -429 165 -434 -2 -2 -186 -6 -409 -7 -462 -3 -454 -4 -491
71 l-23 46 3 475 c2 272 8 482 13 492 17 32 56 49 141 62 114 18 174 19 206 2z"/>
<path d="M12929 13538 c-37 -23 -45 -39 -41 -92 5 -55 15 -66 412 -407 335
-287 652 -533 945 -732 536 -364 1324 -824 1823 -1065 298 -143 1031 -438
1317 -530 503 -162 1332 -382 1437 -382 16 0 18 10 18 110 0 99 -9 157 -91
562 -50 249 -114 577 -144 729 -31 164 -61 292 -73 316 -12 22 -43 60 -71 85
-47 43 -67 51 -428 173 -438 148 -748 271 -1131 449 -335 156 -788 403 -1123
612 -155 97 -238 137 -334 162 -79 20 -100 21 -1284 24 -1114 3 -1206 2 -1232
-14z"/>
<path d="M27284 13507 c-33 -13 -127 -65 -209 -116 -197 -124 -758 -434 -965
-533 -527 -254 -1015 -450 -1500 -603 -151 -47 -286 -93 -300 -101 -14 -9 -37
-20 -52 -27 -15 -6 -33 -26 -42 -46 -16 -38 -316 -1593 -316 -1639 0 -38 35
-90 65 -98 136 -34 1297 306 2059 603 620 242 1406 644 2001 1025 449 288 737
488 1007 700 245 191 727 601 790 672 48 53 52 100 11 146 l-28 31 -1230 4
-1230 5 -61 -23z"/>
<path d="M1 12271 c-1 -27 2 -32 11 -23 8 8 8 17 0 34 -10 22 -11 21 -11 -11z"/>
<path d="M42662 3660 c0 -14 2 -19 5 -12 2 6 2 18 0 25 -3 6 -5 1 -5 -13z"/>
</g>
</svg>
